<svg width="100" height="100" viewBox="0 0 100 100" fill="none" xmlns="http://www.w3.org/2000/svg">
<path d="M65.1047 60.9167C60.4922 67.6625 53.738 70.85 45.8338 70.85C36.2338 70.85 28.0172 63.4625 29.1963 53.6667C30.5088 42.8 38.9463 38.125 52.9797 36.4042C55.4838 36.1 56.5213 36.0125 61.9255 35.6125L62.5005 35.5708V34.675C62.5005 27.1917 58.0505 22.0834 52.0838 22.0834C46.0963 22.0834 41.9172 25.1958 39.3547 32.6084L31.4797 29.8917C35.1755 19.1833 42.4713 13.75 52.0838 13.75C62.9297 13.75 70.8338 22.825 70.8338 34.675C70.8338 45.7125 71.513 54.4917 72.8463 57.8292C74.3297 61.5459 74.8713 62.4833 76.5297 64.55L70.0297 69.7625C67.8505 67.0459 66.8922 65.3917 65.1088 60.9209V60.9167H65.1047ZM88.5713 85.6042C87.4422 86.4375 85.4797 85.9417 86.3672 83.7709C87.4713 81.0709 88.6463 77.9042 87.4588 76.4709C86.5838 75.4084 85.513 74.8792 83.1797 74.8792C81.263 74.8792 80.3047 75.1292 79.0338 75.2125C78.1838 75.2667 77.813 73.975 78.6547 73.3792C79.7568 72.5895 80.9815 71.987 82.2797 71.5959C87.0713 70.1625 92.7172 70.95 93.4047 71.9417C94.9255 74.15 92.5755 82.6459 88.5713 85.6084V85.6042ZM83.6463 81.0875C82.5643 82.1343 81.4085 83.102 80.188 83.9834C71.3463 90.7167 59.8963 94.2334 49.9463 94.2334C33.9338 94.2334 19.613 86.7625 8.74632 74.2542C7.81715 73.2958 8.58799 71.8959 9.67549 72.6542C21.3838 81.3084 35.8755 86.5417 50.8797 86.5417C60.3172 86.5417 70.4963 84.3042 80.1922 79.4875C80.8672 79.1709 81.6255 78.7375 82.288 78.4292C83.8172 77.5542 85.163 79.7042 83.6463 81.0875V81.0875ZM62.5422 43.9209C57.3005 44.3125 56.3088 44.3917 53.9922 44.675C43.3588 45.9792 38.1713 48.8542 37.4713 54.6667C36.9463 59.0125 40.8463 62.5167 45.8338 62.5167C54.3297 62.5167 60.488 57.4 62.5922 43.9209H62.5422V43.9209Z" fill="#9C9AB3"/>
</svg>
