<svg width="100" height="100" viewBox="0 0 100 100" fill="none" xmlns="http://www.w3.org/2000/svg">
<path d="M31.0123 22.2917C33.6748 22.2917 36.1373 22.5 38.3873 23.1167C40.4291 23.4919 42.378 24.2618 44.1248 25.3834C45.7665 26.4125 46.9957 27.8584 47.8123 29.7125C48.6332 31.5667 49.0415 33.8375 49.0415 36.3084C49.0415 39.1959 48.429 41.6667 46.9957 43.5209C45.7665 45.3792 43.7165 47.025 41.2582 48.2625C44.7415 49.2959 47.404 51.15 49.0415 53.6209C50.6832 56.0959 51.7082 59.1875 51.7082 62.6917C51.7082 65.5792 51.0915 68.05 50.0665 70.1125C49.0415 72.175 47.404 74.0292 45.5582 75.2667C43.5531 76.5932 41.3367 77.5682 39.004 78.15C36.5457 78.7709 34.0873 79.1833 31.629 79.1833H4.1665V22.2917H31.0123ZM29.3707 45.375C31.6248 45.375 33.4707 44.7584 34.904 43.7292C36.3373 42.7 36.954 40.8417 36.954 38.575C36.954 37.3375 36.7457 36.1 36.3373 35.2792C35.929 34.4542 35.3123 33.8334 34.4957 33.2167C33.6748 32.8042 32.854 32.3917 31.829 32.1875C30.804 31.9792 29.7832 31.9792 28.5498 31.9792H16.6665V45.3792H29.3748L29.3707 45.375ZM29.9873 69.7C31.2165 69.7 32.4457 69.4917 33.4707 69.2875C34.5056 69.0907 35.4843 68.6682 36.3373 68.05C37.1723 67.4468 37.8708 66.6745 38.3873 65.7834C38.7957 64.7542 39.2082 63.5167 39.2082 62.075C39.2082 59.1875 38.3873 57.125 36.7498 55.6834C35.1082 54.4459 32.854 53.8292 30.1915 53.8292H16.6665V69.7042H29.9873V69.7ZM69.5373 69.4917C71.1748 71.1417 73.6332 71.9667 76.9123 71.9667C79.1665 71.9667 81.2165 71.35 82.854 70.3209C84.4957 69.0834 85.5207 67.8459 85.929 66.6084H95.9707C94.329 71.5542 91.8707 75.0584 88.5957 77.325C85.3123 79.3875 81.4207 80.625 76.7082 80.625C73.693 80.6341 70.7033 80.0744 67.8957 78.975C65.3695 78.0273 63.1166 76.47 61.3373 74.4417C59.4344 72.5441 58.0278 70.2073 57.2415 67.6375C56.2165 64.9583 55.804 62.075 55.804 58.775C55.804 55.6834 56.2165 52.8 57.2415 50.1167C58.227 47.5337 59.6852 45.157 61.5415 43.1084C63.3873 41.2542 65.6415 39.6084 68.0998 38.575C70.8361 37.4753 73.7592 36.915 76.7082 36.925C80.1915 36.925 83.2665 37.5459 85.929 38.9875C88.5957 40.4292 90.6415 42.0792 92.2832 44.5542C93.9578 46.9314 95.2056 49.5821 95.9707 52.3875C96.379 55.2709 96.5832 58.1584 96.379 61.4542H66.6665C66.6665 64.7542 67.8957 67.8459 69.5373 69.4959V69.4917ZM82.4457 47.85C81.0123 46.4084 78.7582 45.5834 76.0915 45.5834C74.2498 45.5834 72.8123 45.9959 71.5832 46.6125C70.354 47.2334 69.5373 48.0584 68.7165 48.8834C67.9622 49.6803 67.4631 50.6843 67.2832 51.7667C67.0748 52.8 66.8707 53.6209 66.8707 54.4459H85.3123C84.904 51.3542 83.879 49.2959 82.4457 47.85V47.85ZM64.4123 26.2084H87.3623V31.775H64.4165V26.2084H64.4123Z" fill="#9C9AB3"/>
</svg>
