<svg width="100" height="100" viewBox="0 0 100 100" fill="none" xmlns="http://www.w3.org/2000/svg">
<path d="M60.4167 12.5C62.0743 12.5 63.664 13.1585 64.8361 14.3306C66.0082 15.5027 66.6667 17.0924 66.6667 18.75V39.5833C66.6667 41.2409 66.0082 42.8306 64.8361 44.0028C63.664 45.1749 62.0743 45.8333 60.4167 45.8333C58.7591 45.8333 57.1694 45.1749 55.9973 44.0028C54.8251 42.8306 54.1667 41.2409 54.1667 39.5833V18.75C54.1667 17.0924 54.8251 15.5027 55.9973 14.3306C57.1694 13.1585 58.7591 12.5 60.4167 12.5ZM18.75 54.1667H25V60.4167C25 61.6528 24.6334 62.8612 23.9467 63.889C23.2599 64.9168 22.2838 65.7179 21.1418 66.1909C19.9997 66.664 18.7431 66.7877 17.5307 66.5466C16.3183 66.3054 15.2047 65.7102 14.3306 64.8361C13.4565 63.962 12.8613 62.8484 12.6201 61.636C12.3789 60.4236 12.5027 59.1669 12.9758 58.0249C13.4488 56.8829 14.2499 55.9067 15.2777 55.22C16.3055 54.5332 17.5139 54.1667 18.75 54.1667ZM54.1667 75H60.4167C61.6528 75 62.8612 75.3666 63.889 76.0533C64.9168 76.7401 65.7179 77.7162 66.1909 78.8582C66.664 80.0003 66.7877 81.2569 66.5466 82.4693C66.3054 83.6817 65.7102 84.7953 64.8361 85.6694C63.962 86.5435 62.8484 87.1387 61.636 87.3799C60.4236 87.6211 59.1669 87.4973 58.0249 87.0242C56.8829 86.5512 55.9067 85.7501 55.22 84.7223C54.5332 83.6945 54.1667 82.4861 54.1667 81.25V75ZM60.4167 54.1667H81.25C82.9076 54.1667 84.4973 54.8251 85.6694 55.9972C86.8415 57.1693 87.5 58.7591 87.5 60.4167C87.5 62.0743 86.8415 63.664 85.6694 64.8361C84.4973 66.0082 82.9076 66.6667 81.25 66.6667H60.4167C58.7591 66.6667 57.1694 66.0082 55.9973 64.8361C54.8251 63.664 54.1667 62.0743 54.1667 60.4167C54.1667 58.7591 54.8251 57.1693 55.9973 55.9972C57.1694 54.8251 58.7591 54.1667 60.4167 54.1667ZM81.25 33.3333C82.9076 33.3333 84.4973 33.9918 85.6694 35.1639C86.8415 36.336 87.5 37.9257 87.5 39.5833C87.5 41.2409 86.8415 42.8306 85.6694 44.0028C84.4973 45.1749 82.9076 45.8333 81.25 45.8333H75V39.5833C75 37.9257 75.6585 36.336 76.8306 35.1639C78.0027 33.9918 79.5924 33.3333 81.25 33.3333ZM18.75 33.3333H39.5833C41.2409 33.3333 42.8306 33.9918 44.0028 35.1639C45.1749 36.336 45.8333 37.9257 45.8333 39.5833C45.8333 41.2409 45.1749 42.8306 44.0028 44.0028C42.8306 45.1749 41.2409 45.8333 39.5833 45.8333H18.75C17.0924 45.8333 15.5027 45.1749 14.3306 44.0028C13.1585 42.8306 12.5 41.2409 12.5 39.5833C12.5 37.9257 13.1585 36.336 14.3306 35.1639C15.5027 33.9918 17.0924 33.3333 18.75 33.3333V33.3333ZM39.5833 12.5C41.2409 12.5 42.8306 13.1585 44.0028 14.3306C45.1749 15.5027 45.8333 17.0924 45.8333 18.75V25H39.5833C37.9257 25 36.336 24.3415 35.1639 23.1694C33.9918 21.9973 33.3333 20.4076 33.3333 18.75C33.3333 17.0924 33.9918 15.5027 35.1639 14.3306C36.336 13.1585 37.9257 12.5 39.5833 12.5ZM39.5833 54.1667C41.2409 54.1667 42.8306 54.8251 44.0028 55.9972C45.1749 57.1693 45.8333 58.7591 45.8333 60.4167V81.25C45.8333 82.9076 45.1749 84.4973 44.0028 85.6694C42.8306 86.8415 41.2409 87.5 39.5833 87.5C37.9257 87.5 36.336 86.8415 35.1639 85.6694C33.9918 84.4973 33.3333 82.9076 33.3333 81.25V60.4167C33.3333 58.7591 33.9918 57.1693 35.1639 55.9972C36.336 54.8251 37.9257 54.1667 39.5833 54.1667Z" fill="#9C9AB3"/>
</svg>
