<svg width="100" height="100" viewBox="0 0 100 100" fill="none" xmlns="http://www.w3.org/2000/svg">
<path d="M92.5917 65.7L91.6542 61.0125H81.1792L79.5125 65.6667L71.1167 65.6833C75.1136 56.0714 79.1192 46.4631 83.1333 36.8583C83.8167 35.2291 85.0292 34.4 86.8167 34.4083C88.1833 34.4208 90.4125 34.4208 93.5083 34.4125L100 65.6875L92.5917 65.7ZM83.5375 54.5917H90.2875L87.7667 42.8416L83.5375 54.5917ZM29.4167 34.4041L37.8583 34.4125L24.8083 65.7042L16.2625 65.6958C14.1135 57.4305 11.9913 49.1582 9.89583 40.8791C9.47917 39.2291 8.65417 38.075 7.06667 37.5291C5.65417 37.0416 3.3 36.2916 0 35.2708V34.4166H13.4875C15.8208 34.4166 17.1833 35.5458 17.6208 37.8625C18.0625 40.1833 19.1708 46.0916 20.9542 55.5875L29.4167 34.4041ZM49.4583 34.4125L42.7833 65.6958L34.75 65.6875L41.4167 34.4041L49.4583 34.4125ZM65.75 33.8333C68.1542 33.8333 71.1833 34.5833 72.925 35.2708L71.5167 41.7583C69.9417 41.125 67.35 40.2708 65.1708 40.3C62.0042 40.3541 60.0458 41.6833 60.0458 42.9583C60.0458 45.0333 63.4458 46.0791 66.9458 48.3458C70.9417 50.9291 71.4667 53.25 71.4167 55.7708C71.3625 61.0042 66.9458 66.1667 57.6292 66.1667C53.3792 66.1042 51.8458 65.7458 48.3792 64.5167L49.8458 57.7458C53.375 59.225 54.8708 59.6958 57.8875 59.6958C60.65 59.6958 63.0208 58.5792 63.0417 56.6333C63.0583 55.25 62.2083 54.5625 59.1083 52.8542C56.0083 51.1417 51.6583 48.7708 51.7167 44.0125C51.7875 37.9208 57.5583 33.8333 65.7542 33.8333H65.75Z" fill="#9C9AB3"/>
</svg>
