<svg width="58" height="58" viewBox="0 0 58 58" fill="none" xmlns="http://www.w3.org/2000/svg">
<circle cx="29" cy="29" r="29" fill="#FF4C60"/>
<path d="M20.25 27.875L22.75 25.375L29.625 32.25L34 27.875L37.75 31.625V20.25H20.25V27.875ZM20.25 31.4112V37.75H24.125L27.8575 34.0187L22.75 28.9112L20.25 31.4112ZM27.6612 37.75H37.75V35.1613L34 31.4112L27.6612 37.75ZM19 17.75H39C39.3315 17.75 39.6495 17.8817 39.8839 18.1161C40.1183 18.3505 40.25 18.6685 40.25 19V39C40.25 39.3315 40.1183 39.6495 39.8839 39.8839C39.6495 40.1183 39.3315 40.25 39 40.25H19C18.6685 40.25 18.3505 40.1183 18.1161 39.8839C17.8817 39.6495 17.75 39.3315 17.75 39V19C17.75 18.6685 17.8817 18.3505 18.1161 18.1161C18.3505 17.8817 18.6685 17.75 19 17.75V17.75ZM33.375 26.5C32.8777 26.5 32.4008 26.3025 32.0492 25.9508C31.6975 25.5992 31.5 25.1223 31.5 24.625C31.5 24.1277 31.6975 23.6508 32.0492 23.2992C32.4008 22.9475 32.8777 22.75 33.375 22.75C33.8723 22.75 34.3492 22.9475 34.7008 23.2992C35.0525 23.6508 35.25 24.1277 35.25 24.625C35.25 25.1223 35.0525 25.5992 34.7008 25.9508C34.3492 26.3025 33.8723 26.5 33.375 26.5V26.5Z" fill="white"/>
</svg>
