<svg width="24" height="24" viewBox="0 0 24 24" fill="none" xmlns="http://www.w3.org/2000/svg">
<path fill-rule="evenodd" clip-rule="evenodd" d="M3.5 16.343L4.57 18.55L7 18.885L5.231 20.585L5.663 23L3.5 21.843L1.337 23L1.769 20.585L0 18.885L2.43 18.55L3.5 16.343ZM12 16.343L13.07 18.55L15.5 18.885L13.731 20.585L14.163 23L12 21.843L9.837 23L10.269 20.585L8.5 18.885L10.93 18.55L12 16.343ZM20.5 16.343L21.57 18.55L24 18.885L22.231 20.585L22.663 23L20.5 21.843L18.337 23L18.769 20.585L17 18.885L19.43 18.55L20.5 16.343ZM19.507 13H19.497C19.519 8.094 17.251 10.228 17.251 6.324C17.251 4.817 18.234 4 19.499 4C21.368 4 22.668 5.787 20.898 9.129C20.317 10.228 21.518 10.488 22.808 10.786C23.926 11.044 24 11.591 24 12.537V15H19.507V13ZM0 15V12.537C0 11.591 0.074 11.044 1.192 10.786C2.482 10.488 3.683 10.228 3.102 9.129C1.332 5.787 2.632 4 4.501 4C5.766 4 6.749 4.817 6.749 6.324C6.749 10.228 4.481 8.094 4.503 13H4.508V15H0ZM6 15V12.377C6 11.119 6.1 10.392 7.588 10.048C9.272 9.659 10.932 9.312 10.133 7.839C7.767 3.475 9.459 1 11.999 1C14.49 1 16.225 3.383 13.865 7.839C13.09 9.303 14.691 9.651 16.41 10.048C17.9 10.392 17.999 11.12 17.999 12.381L18 15H6Z" fill="white"/>
</svg>
