<svg width="58" height="58" viewBox="0 0 58 58" fill="none" xmlns="http://www.w3.org/2000/svg">
<circle cx="29" cy="29" r="29" fill="#FF4C60"/>
<path d="M34 19C34.3315 19 34.6495 19.1317 34.8839 19.3661C35.1183 19.6005 35.25 19.9185 35.25 20.25V25.5L41.7662 20.9375C41.8599 20.8718 41.9699 20.8331 42.0841 20.8256C42.1982 20.8181 42.3123 20.8421 42.4138 20.895C42.5152 20.9479 42.6003 21.0276 42.6596 21.1254C42.7188 21.2233 42.7501 21.3356 42.75 21.45V36.55C42.7501 36.6644 42.7188 36.7767 42.6596 36.8746C42.6003 36.9724 42.5152 37.0521 42.4138 37.105C42.3123 37.1579 42.1982 37.1819 42.0841 37.1744C41.9699 37.1669 41.8599 37.1282 41.7662 37.0625L35.25 32.5V37.75C35.25 38.0815 35.1183 38.3995 34.8839 38.6339C34.6495 38.8683 34.3315 39 34 39H16.5C16.1685 39 15.8505 38.8683 15.6161 38.6339C15.3817 38.3995 15.25 38.0815 15.25 37.75V20.25C15.25 19.9185 15.3817 19.6005 15.6161 19.3661C15.8505 19.1317 16.1685 19 16.5 19H34ZM32.75 21.5H17.75V36.5H32.75V21.5ZM23.25 25.0363C23.3451 25.036 23.4384 25.0629 23.5187 25.1137L28.9625 28.5788C29.0332 28.624 29.0914 28.6862 29.1317 28.7599C29.172 28.8335 29.1932 28.9161 29.1932 29C29.1932 29.0839 29.172 29.1665 29.1317 29.2401C29.0914 29.3138 29.0332 29.376 28.9625 29.4212L23.5187 32.8875C23.4429 32.9358 23.3555 32.9628 23.2656 32.9656C23.1757 32.9684 23.0868 32.947 23.0081 32.9035C22.9294 32.86 22.8639 32.796 22.8185 32.7184C22.773 32.6408 22.7494 32.5524 22.75 32.4625V25.5375C22.75 25.2612 22.975 25.0375 23.25 25.0375V25.0363ZM40.25 25.05L35.25 28.55V29.4475L40.25 32.9475V25.05Z" fill="white"/>
</svg>
